<?xml version="1.0" encoding="utf-8"?>
<!-- Generator: Adobe Illustrator 25.0.1, SVG Export Plug-In . SVG Version: 6.00 Build 0)  -->
<svg version="1.0" id="katman_1" xmlns="http://www.w3.org/2000/svg" xmlns:xlink="http://www.w3.org/1999/xlink" x="0px" y="0px"
	 viewBox="0 0 600 400" style="enable-background:new 0 0 600 400;" xml:space="preserve">
<style type="text/css">
	.st0{fill-rule:evenodd;clip-rule:evenodd;fill:#5F70DB;}
	.st1{fill-rule:evenodd;clip-rule:evenodd;}
</style>
<symbol  id="logo_new" viewBox="-50.1 -12.7 100.2 25.4">
	<path class="st0" d="M-37.9-12.7v25.4c-6.6,0-12.2-5.8-12.2-12.7C-50.1-6.9-44.5-12.7-37.9-12.7z"/>
	<path d="M7.8,1.3L5.1-6h-5L5.4,6.3l-2.2,6h4.4L14.8-6h-4.4L7.8,1.3z"/>
	<path d="M49.7-2c-0.3-3.3-2.6-4.4-5.9-4.4c-3.1,0-5.8,1.5-5.8,4.5c0,2.9,1.5,3.9,5.1,4.4c1.9,0.3,2.5,0.6,2.5,1.2
		c0,0.7-0.5,1.1-1.6,1.1c-1.3,0-1.8-0.6-1.9-1.5h-4.2C37.9,6.4,40.2,8,44,8c3.7,0,6.1-1.5,6.1-4.7c0-2.9-1.8-3.9-5.5-4.4
		c-1.6-0.2-2.3-0.5-2.3-1.1c0-0.6,0.5-1.1,1.5-1.1c1.1,0,1.5,0.4,1.7,1.4H49.7z"/>
	<path d="M36.5,7.7V-6h-4.6V7.7H36.5z"/>
	<path d="M36.7-9.8c0-1.4-1.1-2.4-2.5-2.4c-1.4,0-2.5,1.1-2.5,2.4c0,1.4,1.1,2.4,2.5,2.4C35.6-7.3,36.7-8.4,36.7-9.8z"/>
	<path class="st1" d="M-20.1-6.4c3.1,0,5.7,2.4,5.7,7.1v0.2c0,4.7-2.5,7.1-5.7,7.1c-2,0-3.5-1-4.2-2.3v6.6h-4.6V-6h4.6v2
		C-23.5-5.3-22.1-6.4-20.1-6.4z M-24.4,0.7c0-2.3,1-3.5,2.7-3.5c1.6,0,2.7,1.2,2.7,3.6v0.2c0,2.3-0.9,3.5-2.7,3.5
		c-1.7,0-2.7-1.2-2.7-3.5V0.7z"/>
	<path class="st1" d="M-6.4-6.4c3.7,0,6.1,1.5,6.1,5.2v8.9h-4.5V6.1c-0.6,1-1.8,1.9-4,1.9c-2.4,0-4.6-1.2-4.6-4.1
		c0-3.2,2.7-4.5,7.2-4.5h1.3v-0.3c0-1.3-0.3-2.2-1.8-2.2c-1.3,0-1.7,0.8-1.8,1.6h-4.3C-12.6-4.8-10-6.4-6.4-6.4z M-6.1,2.1h1.2v0.8
		c0,1.2-1,1.9-2.3,1.9c-1.1,0-1.6-0.5-1.6-1.3C-8.8,2.4-7.9,2.1-6.1,2.1z"/>
	<path class="st1" d="M20.6-12.1V-4c0.8-1.3,2.2-2.4,4.2-2.4c3.1,0,5.7,2.4,5.7,7.1v0.2c0,4.7-2.5,7.1-5.7,7.1c-2,0-3.5-1-4.2-2.4
		v2.1H16v-19.8H20.6z M20.5,0.7c0-2.3,1-3.5,2.7-3.5c1.6,0,2.7,1.2,2.7,3.6v0.2c0,2.3-0.9,3.5-2.7,3.5c-1.7,0-2.7-1.2-2.7-3.5V0.7z"
		/>
</symbol>
<g>
	
		<use xlink:href="#logo_new"  width="100.2" height="25.4" x="-50.1" y="-12.7" transform="matrix(4.98 0 0 4.98 294.5 210.3528)" style="overflow:visible;"/>
</g>
</svg>
